<svg width="59" height="59" viewBox="0 0 59 59" fill="none" xmlns="http://www.w3.org/2000/svg">
<path d="M17.7708 0.96167H42.1147C51.3886 0.96167 58.9236 8.49669 58.9236 17.7706V42.1145C58.9236 46.5724 57.1526 50.8479 54.0004 54.0001C50.8481 57.1524 46.5727 58.9233 42.1147 58.9233H17.7708C8.49693 58.9233 0.961914 51.3883 0.961914 42.1145V17.7706C0.961914 13.3126 2.73285 9.03716 5.88512 5.88488C9.0374 2.7326 13.3128 0.96167 17.7708 0.96167ZM17.1912 6.75784C14.4241 6.75784 11.7705 7.85704 9.81386 9.81362C7.85728 11.7702 6.75808 14.4239 6.75808 17.1909V42.6941C6.75808 48.4613 11.424 53.1272 17.1912 53.1272H42.6943C45.4613 53.1272 48.115 52.028 50.0716 50.0714C52.0282 48.1148 53.1274 45.4611 53.1274 42.6941V17.1909C53.1274 11.4237 48.4615 6.75784 42.6943 6.75784H17.1912ZM45.1577 11.105C46.1185 11.105 47.0399 11.4866 47.7193 12.166C48.3986 12.8454 48.7803 13.7668 48.7803 14.7276C48.7803 15.6883 48.3986 16.6098 47.7193 17.2891C47.0399 17.9685 46.1185 18.3502 45.1577 18.3502C44.1969 18.3502 43.2755 17.9685 42.5961 17.2891C41.9167 16.6098 41.5351 15.6883 41.5351 14.7276C41.5351 13.7668 41.9167 12.8454 42.5961 12.166C43.2755 11.4866 44.1969 11.105 45.1577 11.105ZM29.9427 15.4521C33.7858 15.4521 37.4715 16.9788 40.189 19.6962C42.9065 22.4137 44.4332 26.0994 44.4332 29.9425C44.4332 33.7856 42.9065 37.4713 40.189 40.1888C37.4715 42.9063 33.7858 44.4329 29.9427 44.4329C26.0996 44.4329 22.414 42.9063 19.6965 40.1888C16.979 37.4713 15.4523 33.7856 15.4523 29.9425C15.4523 26.0994 16.979 22.4137 19.6965 19.6962C22.414 16.9788 26.0996 15.4521 29.9427 15.4521ZM29.9427 21.2483C27.6369 21.2483 25.4255 22.1642 23.795 23.7947C22.1645 25.4252 21.2485 27.6366 21.2485 29.9425C21.2485 32.2484 22.1645 34.4598 23.795 36.0903C25.4255 37.7208 27.6369 38.6368 29.9427 38.6368C32.2486 38.6368 34.46 37.7208 36.0905 36.0903C37.721 34.4598 38.637 32.2484 38.637 29.9425C38.637 27.6366 37.721 25.4252 36.0905 23.7947C34.46 22.1642 32.2486 21.2483 29.9427 21.2483Z" fill="#0E86E9"/>
</svg>
