<svg width="59" height="58" viewBox="0 0 59 58" fill="none" xmlns="http://www.w3.org/2000/svg">
<path d="M17.7708 0H42.1147C51.3886 0 58.9236 7.53502 58.9236 16.8089V41.1528C58.9236 45.6108 57.1526 49.8862 54.0004 53.0385C50.8481 56.1907 46.5727 57.9617 42.1147 57.9617H17.7708C8.49693 57.9617 0.961914 50.4267 0.961914 41.1528V16.8089C0.961914 12.3509 2.73285 8.07549 5.88512 4.92321C9.0374 1.77093 13.3128 0 17.7708 0ZM17.1912 5.79617C14.4241 5.79617 11.7705 6.89537 9.81386 8.85195C7.85728 10.8085 6.75808 13.4622 6.75808 16.2293V41.7324C6.75808 47.4996 11.424 52.1655 17.1912 52.1655H42.6943C45.4613 52.1655 48.115 51.0663 50.0716 49.1097C52.0282 47.1531 53.1274 44.4994 53.1274 41.7324V16.2293C53.1274 10.4621 48.4615 5.79617 42.6943 5.79617H17.1912ZM45.1577 10.1433C46.1185 10.1433 47.0399 10.525 47.7193 11.2043C48.3986 11.8837 48.7803 12.8051 48.7803 13.7659C48.7803 14.7267 48.3986 15.6481 47.7193 16.3275C47.0399 17.0068 46.1185 17.3885 45.1577 17.3885C44.1969 17.3885 43.2755 17.0068 42.5961 16.3275C41.9167 15.6481 41.5351 14.7267 41.5351 13.7659C41.5351 12.8051 41.9167 11.8837 42.5961 11.2043C43.2755 10.525 44.1969 10.1433 45.1577 10.1433ZM29.9427 14.4904C33.7858 14.4904 37.4715 16.0171 40.189 18.7346C42.9065 21.452 44.4332 25.1377 44.4332 28.9808C44.4332 32.8239 42.9065 36.5096 40.189 39.2271C37.4715 41.9446 33.7858 43.4712 29.9427 43.4712C26.0996 43.4712 22.414 41.9446 19.6965 39.2271C16.979 36.5096 15.4523 32.8239 15.4523 28.9808C15.4523 25.1377 16.979 21.452 19.6965 18.7346C22.414 16.0171 26.0996 14.4904 29.9427 14.4904ZM29.9427 20.2866C27.6369 20.2866 25.4255 21.2026 23.795 22.8331C22.1645 24.4636 21.2485 26.675 21.2485 28.9808C21.2485 31.2867 22.1645 33.4981 23.795 35.1286C25.4255 36.7591 27.6369 37.6751 29.9427 37.6751C32.2486 37.6751 34.46 36.7591 36.0905 35.1286C37.721 33.4981 38.637 31.2867 38.637 28.9808C38.637 26.675 37.721 24.4636 36.0905 22.8331C34.46 21.2026 32.2486 20.2866 29.9427 20.2866Z" fill="#F6F6F6"/>
</svg>
