<svg width="58" height="57" viewBox="0 0 58 57" fill="none" xmlns="http://www.w3.org/2000/svg">
<path d="M51.557 0C53.2356 0 54.8454 0.666819 56.0324 1.85376C57.2193 3.04071 57.8862 4.65055 57.8862 6.32915V50.6332C57.8862 52.3118 57.2193 53.9216 56.0324 55.1086C54.8454 56.2955 53.2356 56.9623 51.557 56.9623H7.25298C5.57438 56.9623 3.96454 56.2955 2.77759 55.1086C1.59065 53.9216 0.923828 52.3118 0.923828 50.6332V6.32915C0.923828 4.65055 1.59065 3.04071 2.77759 1.85376C3.96454 0.666819 5.57438 0 7.25298 0H51.557ZM49.9747 49.0509V32.2787C49.9747 29.5425 48.8878 26.9185 46.9531 24.9838C45.0184 23.0491 42.3943 21.9621 39.6582 21.9621C36.9683 21.9621 33.8354 23.6077 32.3164 26.0761V22.5634H23.4872V49.0509H32.3164V33.4495C32.3164 31.0128 34.2784 29.0191 36.7152 29.0191C37.8902 29.0191 39.0171 29.4859 39.8479 30.3168C40.6788 31.1476 41.1456 32.2745 41.1456 33.4495V49.0509H49.9747ZM13.2024 17.595C14.6124 17.595 15.9647 17.0349 16.9617 16.0379C17.9587 15.0408 18.5189 13.6886 18.5189 12.2785C18.5189 9.33549 16.1454 6.93042 13.2024 6.93042C11.784 6.93042 10.4236 7.49388 9.42068 8.49685C8.41771 9.49982 7.85424 10.8601 7.85424 12.2785C7.85424 15.2216 10.2593 17.595 13.2024 17.595ZM17.6011 49.0509V22.5634H8.83526V49.0509H17.6011Z" fill="#F6F6F6"/>
</svg>
