<svg width="58" height="58" viewBox="0 0 58 58" fill="none" xmlns="http://www.w3.org/2000/svg">
<path d="M51.557 0.962402C53.2356 0.962402 54.8454 1.62922 56.0324 2.81617C57.2193 4.00311 57.8862 5.61296 57.8862 7.29155V51.5956C57.8862 53.2742 57.2193 54.884 56.0324 56.071C54.8454 57.2579 53.2356 57.9247 51.557 57.9247H7.25298C5.57438 57.9247 3.96454 57.2579 2.77759 56.071C1.59065 54.884 0.923828 53.2742 0.923828 51.5956V7.29155C0.923828 5.61296 1.59065 4.00311 2.77759 2.81617C3.96454 1.62922 5.57438 0.962402 7.25298 0.962402H51.557ZM49.9747 50.0133V33.2411C49.9747 30.5049 48.8878 27.8809 46.9531 25.9462C45.0184 24.0115 42.3943 22.9245 39.6582 22.9245C36.9683 22.9245 33.8354 24.5701 32.3164 27.0385V23.5258H23.4872V50.0133H32.3164V34.4119C32.3164 31.9752 34.2784 29.9815 36.7152 29.9815C37.8902 29.9815 39.0171 30.4483 39.8479 31.2792C40.6788 32.11 41.1456 33.2369 41.1456 34.4119V50.0133H49.9747ZM13.2024 18.5574C14.6124 18.5574 15.9647 17.9973 16.9617 17.0003C17.9587 16.0032 18.5189 14.651 18.5189 13.2409C18.5189 10.2979 16.1454 7.89282 13.2024 7.89282C11.784 7.89282 10.4236 8.45628 9.42068 9.45925C8.41771 10.4622 7.85424 11.8225 7.85424 13.2409C7.85424 16.184 10.2593 18.5574 13.2024 18.5574ZM17.6011 50.0133V23.5258H8.83526V50.0133H17.6011Z" fill="#0E86E9"/>
</svg>
