<svg width="63" height="47" viewBox="0 0 63 47" fill="none" xmlns="http://www.w3.org/2000/svg">
<path d="M25.6694 33.6616L41.7477 23.7039L25.6694 13.7462V33.6616ZM61.4817 7.67197C61.8844 9.23201 62.1632 11.3231 62.3491 13.9785C62.566 16.6339 62.6589 18.9242 62.6589 20.9157L62.8448 23.7039C62.8448 30.973 62.3491 36.317 61.4817 39.7358C60.7072 42.7231 58.9104 44.6482 56.1222 45.478C54.6662 45.9095 52.0019 46.2083 47.9126 46.4074C43.8853 46.6398 40.1987 46.7393 36.791 46.7393L31.8653 46.9385C18.8848 46.9385 10.7992 46.4074 7.6083 45.478C4.82014 44.6482 3.02333 42.7231 2.24884 39.7358C1.84611 38.1757 1.56729 36.0846 1.38141 33.4292C1.16456 30.7738 1.07162 28.4836 1.07162 26.492L0.885742 23.7039C0.885742 16.4347 1.38141 11.0908 2.24884 7.67197C3.02333 4.68466 4.82014 2.75951 7.6083 1.9297C9.06433 1.4982 11.7286 1.19947 15.8179 1.00032C19.8452 0.767969 23.5318 0.668392 26.9395 0.668392L31.8653 0.469238C44.8457 0.469238 52.9313 1.00032 56.1222 1.9297C58.9104 2.75951 60.7072 4.68466 61.4817 7.67197Z" fill="#4E94FD"/>
</svg>
