<svg width="63" height="47" viewBox="0 0 63 47" fill="none" xmlns="http://www.w3.org/2000/svg">
<path d="M25.6694 33.1923L41.7477 23.2346L25.6694 13.2769V33.1923ZM61.4817 7.20274C61.8844 8.76278 62.1632 10.8539 62.3491 13.5093C62.566 16.1647 62.6589 18.4549 62.6589 20.4465L62.8448 23.2346C62.8448 30.5038 62.3491 35.8477 61.4817 39.2665C60.7072 42.2538 58.9104 44.179 56.1222 45.0088C54.6662 45.4403 52.0019 45.739 47.9126 45.9382C43.8853 46.1705 40.1987 46.2701 36.791 46.2701L31.8653 46.4693C18.8848 46.4693 10.7992 45.9382 7.6083 45.0088C4.82014 44.179 3.02333 42.2538 2.24884 39.2665C1.84611 37.7065 1.56729 35.6154 1.38141 32.96C1.16456 30.3046 1.07162 28.0143 1.07162 26.0228L0.885742 23.2346C0.885742 15.9655 1.38141 10.6215 2.24884 7.20274C3.02333 4.21543 4.82014 2.29027 7.6083 1.46046C9.06433 1.02896 11.7286 0.730231 15.8179 0.531077C19.8452 0.29873 23.5318 0.199154 26.9395 0.199154L31.8653 0C44.8457 0 52.9313 0.531078 56.1222 1.46046C58.9104 2.29027 60.7072 4.21543 61.4817 7.20274Z" fill="#F6F6F6"/>
</svg>
